<svg xmlns="http://www.w3.org/2000/svg" viewBox="0 0 323.1 255.8"><g fill="#fff"><path d="M63.1 194.5c-3.1.7-6.2 1.3-9.2 2.1-5.3 1.5-10.5 3.1-15.7 4.7-.5.1-1.2.4-1.5.2-.6-.4-.1-1.1.1-1.6 1.9-5.3 3.9-10.6 5.9-15.9.4-1 .3-1.8-.3-2.7l-7.5-10.8c-.1-.1-.2-.3-.3-.4-.5-.9-.5-1.2.5-1.4 2-.6 4.1-1.1 6.1-1.7 9-2.3 18.1-4.2 27.3-5.8 1.6-.3 2.3.3 2.6 1.9.2 1.1.4 2.1.6 3.2.1.6.3.9 1.1.8 2.9-.5 5.9-.9 8.8-1.2 5.1-.6 10.1-1.3 15.2-1.8 5.2-.5 10.4-1 15.7-1.4 5.4-.4 10.8-.7 16.2-1 11.9-.7 23.8-1 35.7-.8 10 .1 20.1.4 30.1.8 7.7.3 15.3.9 22.9 1.6 6.4.5 12.8 1.2 19.1 2 4.3.5 8.6 1.2 12.9 1.8 1.8.3 1.8.3 2.2-1.6.1-.8.2-1.6.4-2.4.3-1.4 1.1-1.9 2.5-1.7 11.1 1.9 22.2 4.2 33 7.3.3.1.5.1.8.2.6.2.6.6.4 1-.1.3-.3.5-.5.8-2.5 3.7-5 7.4-7.6 11.1-.5.7-.6 1.3-.3 2.1 2 5.4 4 10.7 6 16.1.2.5.2 1.1.3 1.7-.5-.1-1.1 0-1.6-.2-7.8-2.7-15.7-4.9-23.8-6.5-1.2-.2-1.2-.2-1.4 1-.1.7-.3 1.5-.4 2.2-.3 1.3-.8 1.6-2.1 1.4-2.2-.4-4.4-.8-6.6-1.1-6.1-.9-12.2-1.8-18.4-2.6-5.6-.7-11.1-1.3-16.7-1.8-5.1-.5-10.2-.9-15.3-1.2-7.7-.4-15.4-.8-23.1-1-3.9-.1-7.7-.1-11.6-.1-6.3 0-12.6-.1-19 .1-7.2.2-14.4.5-21.6.9-5.4.3-10.8.7-16.2 1.2-5.7.5-11.3 1.1-17 1.8-6.1.7-12.2 1.6-18.2 2.5-2.4.3-4.9.8-7.3 1.2-1.6.3-2.1 0-2.4-1.6-.2-.9-.3-1.8-.5-2.6-.1-.4-.2-.5-.3-.8zm46.2-23.4c.5 1.1.9 1.9 1.3 2.8 1.1 3.1 2.2 6.1 3.4 9.2.4 1.1.4 1 1.5 1 .8 0 1-.4 1.1-1.2.1-.9.3-1.8.5-2.8.3-1.2.5-2.4.8-3.6 1 2.1 1.7 4.2 2.4 6.4.2.6.5.8 1.1.7 1.3 0 1.3 0 1.6-1.4.5-2.1.9-4.2 1.4-6.3.4-1.9.9-3.9 1.4-5.9-.6 0-1.2.1-1.7.1-.6 0-1.1.1-1.7.1.1 2-.4 4.8-1.1 6.6-.6-1.7-1.2-3.3-1.7-4.9-.6-1.6-.6-1.5-2.2-1.3-.7.1-1.1.3-1.1 1 0 .3-.1.6-.2.9-.3 1.5-.6 3-1 4.5h-.3c-.5-2-1.8-3.8-1.7-6.1-1.3.1-2.5.2-3.8.2zm92.1 12.4c-.1-4.4.2-8.7.7-13.1-.9 0-1.7-.1-2.5-.2s-1.3.2-1.7 1c-.7 1.6-1.6 3.1-2.4 4.8-.7-1.9-1.3-3.6-2-5.2-.1-.3-.4-.8-.7-.8-1.1-.2-2.2-.2-3.3-.3.1 4.5-.2 8.9-.7 13.3h2.9l.3-7.5h.3c.9 2.3 1.7 4.5 2.7 7.1 1.2-2.4 2.3-4.5 3.4-6.6.1 0 .2.1.3.1-.2 2.5-.4 4.9-.5 7.5 1.1-.1 2.2-.1 3.2-.1zm-118.7-3.3c.3-.8 1.2-1.3 1-2.4-.2-1.1-.4-2.2-1.6-2.7-.5-.2-1-.8-1.5-.7-2.3.2-4.7.6-7 1 1 4.4 1.6 8.7 1.9 13 .1 0 .3.1.4.1 2.2-.3 4.3-.6 6.5-.9.3 0 .6-.3.9-.5.4-.5.8-1 1.2-1.6.2-.3.3-.7.3-1-.1-1.6-.1-3.3-1.9-4.1-.1-.1-.1-.2-.2-.2zm148.2 6.1c.3-2.7.6-5.2.8-7.8 1.1 2.2 1.9 4.4 2.6 6.7.6 1.7.6 1.6 2.3 1.8.6.1.9-.1.9-.7.5-4.1 1-8.2 1.6-12.4-.9-.1-1.9-.2-2.8-.3-.2 2.1-.4 4.1-.6 6.1h-.3c-.2-.4-.3-.8-.5-1.2-.5-1.5-1.1-3-1.7-4.5-.1-.3-.4-.7-.6-.8-1.1-.2-2.2-.3-3.3-.4-.1 4.5-.7 8.8-1.5 13.2 1.2 0 2.2.2 3.1.3zM138 175.2c.1 0 .2 0 .3-.1.2.4.5.7.7 1.1.8 1.5 1.7 3.1 2.5 4.6 1.1 2.1 1.1 2.1 3.4 1.7 0 0 .1-.1.2-.1-.1-4.3-.2-8.6-.3-13h-1.4c-.5 0-1 .1-1.6.1.5 2.8.6 5 .2 6.2-1-1.8-1.9-3.5-2.8-5.2-.2-.3-.6-.8-.9-.8-1.1 0-2.2.1-3.2.2.6 4.5.5 8.8.5 13.2 1 0 2-.1 2.9-.1-.2-2.9-.4-5.3-.5-7.8zm-39.4 10.3c-.8-1.4-1.5-2.6-2.1-3.8-.8-1.5-.8-1.6.3-2.9.3-.3.7-.8.7-1.1-.2-1.5.1-3.1-1.6-4.1-.9-.6-1.7-1.1-2.8-.7-.2.1-.4 0-.7.1l-5.4.6c.9 4.4 1.3 8.8 1.5 13.2 1.2-.2 2.3-.3 3.3-.4-.2-1.5-.4-2.8-.6-4.1-.1-.7.1-.9.7-1 .6-.1 1 .1 1.3.7.5 1.1 1 2.3 1.6 3.4.1.3.5.6.7.6 1-.2 2-.3 3.1-.5zm87.9-10.1v-2.7c0-.3-.1-.7-.3-1-1.1-1.4-2.2-2.8-4.3-2.3h-.3c-2.7-.1-2.7-.1-4.5 1.8-.3.3-.5.8-.5 1.2-.1 2.3-.2 4.5-.3 6.8 0 .6.2 1 .5 1.4 1.1 1.4 2.2 2.2 4.2 2.1 2.8-.1 2.9.1 4.7-1.9.2-.3.4-.7.5-1 .2-1.5.2-2.9.3-4.4zm32.5-3.7c-.1.7 0 1.3-.2 1.8-1.1 3.1-2.3 6.2-3.5 9.3-.2.6-.6 1.1-.9 1.8 1.3.1 2.4.2 3.4.3.2-1 .3-1.8.6-2.6.1-.2.4-.4.6-.4.8 0 1.6.1 2.4.2.6.1.9.3.9.9v2.4l3.6.3c-.4-2.4-.9-4.7-1.3-7-.3-2.1-1.1-4.2-.6-6.5-1.7-.2-3.3-.4-5-.5zm-64.5 3.5c.1.3.1.5.2.6.7.9.6 1.9.5 3 0 .3-.2.7-.5.9-1.2.8-2.9-.1-3-1.6v-4.2c0-1.5.6-2.2 2.1-2.1 1.2 0 2.4.2 3.7.3 0-.1-.1-.3-.1-.4-1.2-3.2-.2-2.4-3.5-2.6-2.1-.1-3.6.5-4.8 2.1-.4.5-.6.9-.6 1.5 0 1.6.2 3.2 0 4.8-.2 2 .7 3.3 2.1 4.4.3.2.7.4 1.1.4 1.2.1 2.3 0 3.5 0 .8 0 3-2 3.1-2.7v-.3c-.3-1.4-.3-2.9.3-4.4h-2.8c-.3.2-.7.2-1.3.3zm53.3 8.9v-3.4c0-1.5.1-1.7 1.5-1.4 2.1.5 3.6-.3 5-1.8.2-.3.6-.5.6-.9.2-1.7.6-3.4-1.1-4.7-.2-.1-.3-.4-.4-.5-.2-.2-.5-.4-.8-.4-2.4-.2-4.8-.4-7.2-.5-.1 4.5-.4 8.8-1 13.2 1.1.2 2.3.3 3.4.4zM100.1 172c.8 4.4 1.1 8.8 1.3 13.2 2.4-.2 4.7-.4 7.1-.7.2 0 .5-.3.6-.5.3-.9.4-1.8.6-2.7-1.2.3-2.3.7-3.4.8-2.1.3-2.1.2-2.2-1.8v-.7c-.1-.5.2-.7.7-.7h2.4c-.1-1-.2-2-.3-3.1-.8.2-1.5.4-2.1.6-.6.2-1.1 0-1.1-.7-.1-1.4-.2-1.7.8-1.7h4.4l-.9-2.1c-.2-.5-.5-.6-1-.6-2.4.4-4.6.5-6.9.7zm74.1 7.4c-1.4.2-2.5.4-3.6.4-1.2 0-1.8-.7-1.9-1.9v-4.3c0-1.2.7-1.9 2-1.9.7 0 1.5.2 2.2.3.4.1.7.2 1.2.3-.3-1-.5-1.8-.8-2.5-.1-.3-.4-.7-.7-.7-2.3-.1-4.8-.6-6.4 1.9l-.1.1c-.2.4-.5.8-.5 1.3-.1 1.6-.1 3.1-.1 4.7 0 2.7 0 2.7 1.9 4.6l.3.3c.4.2.7.4 1.1.4 1.2.1 2.4 0 3.6 0 .3 0 .7-.2.8-.5.5-.7.7-1.6 1-2.5zm72.5 9c0-.4-.1-.7-.1-1-.1-2 0-4 1.2-5.7 1.4-1.9 2.8-3.9 4.2-6-.9-.1-1.8-.3-2.6-.4-.6-.1-.8.1-1.1.7-.6 1.2-1.4 2.4-2.4 3.9-.6-1.7-1.2-3-1.3-4.5 0-.4 0-.7-.5-.8-1.1-.1-2.1-.3-3.2-.4.9 2.6 1.8 5.1 2.7 7.5.2.6.3 1.3.2 1.9-.2 1.4-.6 2.8-.9 4.2 1.2.2 2.4.4 3.8.6zM131.9 183c-.6-4.4-.8-8.8-.7-13.2-1.2.1-2.3.1-3.4.2.6 4.5.8 8.8.7 13.2 1-.1 1.9-.1 2.9-.2.2.1.4 0 .5 0zM36.5 100.4c.1-.4.1-.7.3-1 1.1-2.7 1.3-5.5 1.3-8.4-.1-9.1 0-18.3 0-27.4 0-1.5-.2-3-.7-4.5-.3-.9-.6-1.8-.9-2.8.5 0 .9-.1 1.3-.1h25.7c.8 0 1.3.2 1.9.8 1.8 1.9 3.7 3.7 5.5 5.5.5.5.7 1 .7 1.6v6.7c0 .7-.2 1.2-.7 1.6l-4 4c1.5 1.5 2.8 2.9 4.2 4.2.8.8 1.2 1.5 1.1 2.7-.1 2.9 0 5.7 0 8.6 0 .6-.2 1.1-.6 1.5-2.1 2.1-4.3 4.2-6.4 6.4-.4.4-.8.7-1.4.7H36.9c-.1 0-.2 0-.4-.1zM50 86.3V89c0 1.1.6 1.6 1.7 1.7 1.2 0 2.4.2 3.5 0 1-.2 2.3-.6 3-1.3 1.1-1.2 1.2-2.8.7-4.4-.6-1.7-2.1-2.3-3.6-2.5-1.3-.2-2.6-.1-3.9 0-.9 0-1.2.3-1.2 1.3-.2.7-.2 1.6-.2 2.5zm0-17.1v2.1c0 1 .3 1.3 1.3 1.3 1.4 0 2.8.1 4.1 0 .8-.1 1.8-.5 2.4-1 .7-.8 1.3-1.9.9-3.2-.5-1.4-1.5-2.3-3-2.5-1.5-.2-3-.1-4.6 0-.7 0-1.1.4-1.1 1.1v2.2zM204.3 128.5v-2.4-10.8c0-1.5-.2-2.8-.6-4.2-.3-1-.6-2-1-3h13.6c-.3.9-.5 1.7-.8 2.6-.6 1.6-.8 3.3-.8 5v35.5c0 1.1 0 1.1-1.2 1.1h-6.3c-.7 0-1.2-.2-1.6-.9-4.3-7.3-8.7-14.6-13-21.9-.5-.8-.8-1.8-1.2-2.7h-.1.1c-.1.3-.2.5-.2.8 0 5.8.1 11.6.1 17.3 0 1.5.2 3 .7 4.5.3.9.6 1.8.8 2.7-1 .3-11.4.4-13.8.1.3-.9.4-1.8.8-2.6.6-1.5.7-3.1.7-4.7v-29.7c0-1.4-.2-2.6-.7-3.9-.4-1-.7-2-1.1-3.1.3 0 .6-.1.9-.1h11.8c.7 0 1 .2 1.4.8 3.4 5.8 6.8 11.6 10.3 17.3.4.7.8 1.5 1.2 2.3.1.1.1.2.1.3l.1-.1c-.1-.1-.2-.1-.2-.2zM152.9 130.2v12.9c0 .7-.2 1.3-.7 1.8-2.3 2.2-4.5 4.5-6.8 6.7-.5.5-1 .7-1.7.7h-17.8c-.7 0-1.2-.2-1.6-.7-2.2-2.3-4.5-4.5-6.8-6.7-.5-.5-.7-1-.7-1.8v-25.7c0-.8.2-1.3.8-1.9 2.3-2.2 4.5-4.5 6.8-6.7.5-.5 1-.7 1.8-.7h17.5c.7 0 1.2.2 1.7.8 2.2 2.3 4.5 4.5 6.8 6.7.5.5.7 1 .7 1.8v12.8zm-12.6-.2v-7.3c0-1.3-.5-2.4-1.2-3.3-1.4-1.9-6.8-1.9-8.2 0-.7 1-1.3 2.2-1.3 3.6.1 4.5 0 9 0 13.6 0 2.4.9 4.2 3.2 5 .9.3 1.8.3 2.8.3 2.8-.1 4.5-1.9 4.6-4.7.1-2.5.1-4.9.1-7.2zM82.5 56.3H104c-.2 1.1-.5 2.2-.7 3.2-.1.6-.1 1.2 0 1.7 2.7 10.9 5.5 21.9 8.3 32.8.4 1.5 1.2 3 1.9 4.4.3.6.6 1.3 1 2H99c.2-1.4.3-2.8.5-4.1.2-1.6-.4-3-.8-4.4-.1-.5-.6-.8-1.3-.8h-9.1c-.7 0-1.1.4-1.3 1-.5 1.8-1.1 3.6-.6 5.5.2.9.2 1.9.4 2.9H72.3l.3-.9c1.7-2.9 2.6-6.1 3.4-9.3 2.4-9.5 4.8-19.1 7.2-28.6.2-.8.2-1.7 0-2.5-.3-1-.5-1.9-.7-2.9zm10.2 9.9c-1.1 4.6-2.2 9.2-3.2 13.8-.3 1.2-.1 1.4 1.2 1.5h3.1c2.4 0 2.6.1 1.9-2.5-1-4.3-2-8.5-3-12.8zM187.8 56.3h21.5c-.2 1.1-.5 2.1-.7 3.2-.1.6-.1 1.2 0 1.8l8.4 33.3c.2.6.4 1.2.7 1.7.6 1.3 1.3 2.6 2 4.1h-15.5c.2-1.4.3-2.6.5-3.9.3-1.7-.5-3.2-.9-4.8-.1-.3-.7-.6-1.1-.6h-9.3c-.8 0-1.1.4-1.3 1.1-.8 2.2-.9 4.4-.4 6.6.1.5.1 1.1.2 1.7h-14.5c.6-1.1 1.1-2.3 1.7-3.4 1.1-1.9 1.4-4 1.9-6 2.5-9.7 4.9-19.4 7.4-29.1.3-1 .3-2 0-3-.3-.9-.4-1.7-.6-2.7zm10.3 10h-.1l-.3 1.5c-.9 4-1.9 8.1-2.8 12.1-.2 1.1 0 1.4 1.1 1.4h3.9c1.6 0 1.7-.2 1.4-1.7-.9-3.9-1.8-7.7-2.7-11.6-.3-.5-.4-1.1-.5-1.7zM92.4 152.2H77c.3-.9.4-1.7.7-2.4.7-1.7.8-3.4.8-5.3 0-9.3-.1-18.6 0-28 0-2.3-.3-4.5-1.1-6.7-.2-.5-.3-1.1-.6-1.8h26.3c.9 0 1.5.2 2.1.9 2.2 2.2 4.3 4.4 6.6 6.6.6.5.8 1.1.8 1.9v10.3c0 .7-.2 1.2-.7 1.7-2.5 2.4-5 4.9-7.4 7.4-.5.5-1 .7-1.7.7H92.2c-1.5 0-1.7.2-1.7 1.7v1.5c-.3 3.8.1 7.4 1.7 10.9 0 .1.1.3.2.6zm-1.9-29.5v3c0 1.3.3 1.5 1.6 1.6 1.2 0 2.3.1 3.5 0 1.8-.1 3.1-.8 4.1-2.5 1.5-2.7-.6-6.4-4-6.5-1.3-.1-2.6 0-3.9 0-1 0-1.3.3-1.3 1.3v3.1zM249.1 68.3c-1.3-.5-2.5-.8-3.7-1.3-1.2-.5-2.4-.7-3.7-.6-2 .1-3.9 0-5.9 0-1.8 0-3.3 1.1-3.8 2.8-.3 1.2.5 2.3 2 2.7 2.5.6 5.1 1.2 7.6 1.7 1 .2 1.8.6 2.5 1.4 1.3 1.4 2.8 2.8 4.2 4.2.5.5.7 1 .7 1.6v10.6c0 .6-.2 1.1-.6 1.5l-6.9 6.9c-.4.5-.9.6-1.5.6h-16.7c-.5 0-1 .2-1.3-.6-1.3-4-2.7-8.1-4.1-12.3.4.1.7.1 1 .2.1 0 .2 0 .3.1 4.4 2.2 9.1 1.9 13.8 1.8 2-.1 3.2-1.3 3.4-3.4.1-1.1 0-2.3-1.1-2.9-.4-.2-.8-.5-1.3-.6-2.7-.6-5.3-1.2-8-1.8-.7-.1-1.2-.4-1.7-.9-1.4-1.4-2.8-2.9-4.3-4.3-.4-.4-.7-.9-.7-1.5v-8.9c0-.6.2-1 .6-1.4l6.9-6.9c.4-.4.9-.7 1.5-.7h15.9c.6 0 1 .1 1.3.8 1.1 3.6 2.3 7.1 3.5 10.7.1.1.1.2.1.5zM286.7 69c-1.8-.6-3.4-1-4.9-1.6-2-.8-4.1-.5-6.1-.6-.7 0-1.1.4-1.1 1.1v24.7c0 .7.2 1.5.4 2.2.6 1.8 1.2 3.6 1.8 5.6H260c.6-1.7 1.2-3.4 1.6-5.1.3-1 .5-2 .5-3V68.5c0-1.6-.2-1.7-1.7-1.8-2.4-.1-4.7.2-7 1.1-1 .4-2 .7-3.2 1 0-.4 0-.6.1-.8 1.2-3.7 2.5-7.3 3.7-11 .2-.7.6-.9 1.3-.9h26.1c.6 0 1 .1 1.3.8 1.3 4.1 2.6 7.9 4 12.1zM255 120.8c-2.1-.7-4-1.3-5.8-1.9-1.8-.6-3.6-.2-5.5-.2-.3 0-.7.5-.8.9-.1.3 0 .7 0 1.1v23.8c0 .8.2 1.7.4 2.5.5 1.7 1.1 3.5 1.7 5.2-1 .3-14.1.4-16.7.1.4-1.1.6-2.2 1.1-3.3.9-2.2 1.1-4.4 1.1-6.7-.1-7.1 0-14.2 0-21.4v-.9c0-1.1-.3-1.3-1.4-1.4-2.4-.1-4.8 0-7.1 1-1.1.5-2.3.8-3.6 1.2.2-.6.2-.9.4-1.3 1.2-3.5 2.4-6.9 3.5-10.4.2-.7.5-1 1.3-1h26.2c.7 0 1 .2 1.2.9 1.3 3.8 2.6 7.6 4 11.8zM178.9 87.5c-.4 1.2-.7 2.2-1 3.2-1 3-2 5.9-3 8.9-.2.6-.5.9-1.2.9h-24.5c-.1 0-.3 0-.5-.1.4-1.2.8-2.4 1.1-3.6.2-.9.4-1.8.4-2.8V63.8c0-1.7-.2-3.3-.8-4.9-.3-.8-.5-1.6-.7-2.4 1-.3 13.4-.5 15.7-.2-.4 1.2-.7 2.4-1.2 3.5-.6 1.4-.7 2.9-.7 4.5 0 7.7.1 15.4 0 23.1 0 1.5.7 2.4 2.2 2.2.9-.1 1.8-.1 2.7 0 3.3.3 6.4-.3 9.4-1.6.7-.1 1.2-.2 2.1-.5zM117.2 100.4c.1-.4.1-.7.3-1 1.1-2.7 1.3-5.5 1.3-8.4-.1-9.1 0-18.3 0-27.4 0-1.5-.2-3-.7-4.5-.3-.9-.6-1.8-.9-2.8H133c-.5 1.6-1.1 3.1-1.5 4.6-.2.7-.3 1.5-.4 2.2v24.3c0 1.7.4 2.1 2.1 2.1h2c3.8.3 7.5-.3 11-1.8.3-.1.6-.2 1-.3 0 .3 0 .6-.1.8-1.2 3.7-2.5 7.5-3.7 11.2-.2.6-.4.9-1.2.9h-24.6c-.1.2-.2.2-.4.1zM173.6 152.2h-15.5c.4-1.2.7-2.3 1-3.4.4-1.1.5-2.2.5-3.3v-29.8c0-1.7-.1-3.3-.8-4.9-.3-.8-.5-1.7-.8-2.7h15.5c-.4 1.2-.8 2.4-1.1 3.7-.2.9-.4 1.9-.4 2.9v30.1c0 1.6.1 3.1.7 4.6.4.8.6 1.8.9 2.8zM269.3 124.5c1.5-.2 2.9-.5 4.4-.7 1.1-.1 1.3.1.8 1.2-.2.6-.5 1.2-.7 1.9v.2h5c.7.1 1 .5 1.1 1.1.1.6-.4 1.2-1.1 1.3-.8.1-1.7 0-2.6 0-.8 0-1.5.1-2.3 0-1-.1-1.7.2-2.2 1.3.4 0 .8.1 1.1.1h8.6c1.3 0 1.9.4 1.9 1.2 0 .8-.6 1.2-1.9 1.2H271.7c.4 1.1 1 1.5 2 1.4 1.3-.1 2.7 0 4 0h.7c.9.1 1.4.6 1.4 1.3 0 .7-.5 1.2-1.5 1.2h-4.7c.3.8.6 1.5.9 2.2.4 1 .2 1.2-.9 1.1-1.4-.2-2.8-.4-4.3-.7 0 .6-.4.8-1.1.7-1.3-.2-2.6-.5-3.8-.7h-.6c-.1 1-.9.7-1.5.6-.8-.1-1.7-.2-2.5-.4-1.8-.4-3.4-1.3-4.4-2.9-.8-1.4-1.5-2.8-2.1-4.3-.2-.4-.2-1.1 0-1.6.5-1.3 1.1-2.6 1.8-3.9 1.2-2 3-3.1 5.3-3.5.8-.1 1.5-.2 2.3-.3.3 0 .8 0 .9.2.2 1 .8.5 1.3.4 1.1-.2 2.3-.4 3.4-.5.7.1.7.2 1 .9zm-13.3 6c2.7.1 4.2-1.8 4.5-4.2-2.5.4-3.6 2.2-4.5 4.2zm4.6 7.7c-.4-2.7-2.2-4.4-4.6-4.2.9 2 2 3.8 4.6 4.2zm6.3-4.3c1 2.1 2.1 3.9 4.6 4.3-.5-2.5-1.7-4.2-4.6-4.3zm0-3.4c2.2.2 4.3-1.5 4.5-4.2-2.4.4-3.5 2.1-4.5 4.2zm-.8-4.3c-2.6.5-3.8 2.2-4.6 4.3 2.4 0 3.6-1.1 4.6-4.3zm0 12c-.7-2.9-2.5-4.5-4.6-4.2.9 2.1 2 3.8 4.6 4.2zM54.5 124.5c.1-.6.5-.9 1.3-.7.7.2 1.4.2 2.1.3.7.1 1.3.3 2 .5.1-.8.6-.8 1.3-.8 4.8.1 7.6 2.7 9.1 7 .3 1 .4 1.9 0 2.8-.5 1-.9 2-1.5 3-1.2 2.1-3.1 3.3-5.5 3.7-.8.1-1.5.2-2.3.3-.5.1-.9.1-1.1-.5 0-.1-.4-.2-.6-.1-1.2.2-2.5.4-3.7.6-.5.1-1 .2-1.2-.5 0-.1-.4-.1-.6-.1-1.3.2-2.5.5-3.8.6-.9.1-1.2-.2-.8-1.1.3-.7.6-1.4.9-2.2H44.8c-.6-.1-1-.6-1-1.2 0-.7.4-1.1 1.1-1.2h2c1 0 2-.1 3 0 1.1.1 1.7-.4 2.1-1.4H42.3c-1.3 0-1.9-.4-1.9-1.2 0-.8.5-1.2 1.8-1.2H51.9c-.4-1.1-.9-1.5-2-1.4-1.5.1-3 0-4.4 0-1.2 0-1.7-.4-1.7-1.3 0-.8.5-1.2 1.6-1.2H50c-.4-.9-.7-1.6-1-2.3-.3-.8 0-1.1.8-1 1.7.1 3.2.4 4.7.6zm2.4 9.4c-2.7-.1-4.2 1.9-4.5 4.3 2.5-.4 3.6-2.1 4.5-4.3zm1 4.1c1.8.3 4-2.2 4.4-4.1-2.7 0-4.1 2-4.4 4.1zm10-4.1c-2.6 0-4.2 1.6-4.5 4.2 2.4-.3 3.5-2 4.5-4.2zm-5.5-3.3c-1.2-2.9-2.7-4.3-4.5-4.1.5 2.4 1.7 4 4.5 4.1zm-10-4.3c.4 2.6 2.1 4.4 4.5 4.2-.9-2.1-2-3.8-4.5-4.2zm15.5 4.2c-1-2.1-2.1-3.9-4.6-4.2.5 2.5 1.7 4.2 4.6 4.2zM284 97.8c0 1.7-1 2.6-2.7 2.6-1.6 0-2.7-1.1-2.7-2.8 0-1.6 1.1-2.7 2.7-2.7 1.7.1 2.7 1.1 2.7 2.9zm-.6-.1c0-1.1-1-2.1-2.1-2.1s-2.1 1.1-2.1 2.2 1.1 2.2 2.2 2.2c1.1-.1 2-1.2 2-2.3z"/><path d="M81.5 183.8c0 1-1.1 1.7-2.5 1.7-.7 0-1.1-1-1.1-2.7 0-.6.6-.8 1.8-.8 1.1 0 1.8.7 1.8 1.8zM77.6 179.7c-.1-.3-.1-.5-.2-.7-.4-1.8-.2-2.1 1.6-2.2.8-.1 1.5.4 1.6 1.1.1.7-.4 1.4-1.3 1.5-.5.2-1.1.3-1.7.3zM92.2 178.8c-1.4.1-1.4.1-1.5-1 0-.1 0-.3-.1-.4-.3-1.8-.1-2.1 1.8-2.1.9 0 1.5.5 1.7 1.4.2.9-.2 1.6-1 1.9-.4.1-.9.1-.9.2zM183.3 175.1c-.1 1.2-.1 2.3-.2 3.5-.1 1.1-.6 1.5-1.8 1.5-1.2 0-1.9-.5-1.8-1.6 0-1.8.1-3.6.2-5.3.1-1 .7-1.4 1.8-1.4s1.6.5 1.7 1.4v.9c.1.4.1.7.1 1zM221.2 175.1c.2 1.4.4 2.9.6 4.5-.8-.1-1.5-.1-2.4-.2.5-1.6 1-2.9 1.5-4.3h.3zM208.2 175.2v-.1c.1-.6.1-1.5.3-1.6.6-.2 1.4-.1 2.1 0 .8.2 1.2.9 1.1 1.7-.1.8-.6 1.4-1.4 1.5h-.8c-1.6-.1-1.4-.2-1.3-1.5zM280.5 96.2h1c.7.1 1.1.5.8 1-.3.6-.1 1.2 0 1.7-.9.4-.7-.6-1.2-.8-.2.3-.3.6-.5 1h-.2c.1-.9.1-1.8.1-2.9zm.9 1.4c.1-.2.3-.4.3-.5 0-.1-.2-.2-.4-.3-.1.1-.3.2-.3.4l.4.4z"/></g></svg>
