<?xml version="1.0" encoding="utf-8"?>
<!-- Generator: Adobe Illustrator 24.1.2, SVG Export Plug-In . SVG Version: 6.00 Build 0)  -->
<svg version="1.1" xmlns="http://www.w3.org/2000/svg" xmlns:xlink="http://www.w3.org/1999/xlink" x="0px" y="0px"
	 viewBox="0 0 323.1 255.8" style="enable-background:new 0 0 323.1 255.8;" xml:space="preserve" fill="#fff">
<style type="text/css">
	.st0{fill-rule:evenodd;clip-rule:evenodd;stroke:#fff;stroke-width:0.216;stroke-miterlimit:2.6131;}
</style>
<g id="Layer_2">
</g>
<g id="Layer_1">
	<g>
		<path d="M301.3,96.3h-82.9c-2.1,0-3.5-0.6-3.5-3.5V80.5c0-3.5-1.9-5.4-5.4-5.4h-94.9c-3.5,0-5.4,2-5.4,5.4l0,12.3
			c0,2.6-1.2,3.5-3.5,3.5l-54.3,0c-4.2,0-6.6,2-7.8,4.6l-26.4,51.7c-0.3,0.6-0.6,1.4-0.6,2.2c0,2,1.3,4.7,5.1,4.7h84.1
			c2.6,0,3.5,1.2,3.5,3.6v12.3c0,3.7,2.1,5.4,5.4,5.4h94.9c3.3,0,5.4-1.5,5.4-5.3V163c0-2.5,1.1-3.6,3.5-3.6h52.7
			c3.6,0,6.3-1,8.1-4.3l26.2-51.1c0.6-1.1,1-1.7,1-3.1C306.4,97.6,303.4,96.3,301.3,96.3z M280.5,116.9l-12.6,24.7
			c-0.8,1.4-2.2,1.5-3.2,1.5h-62.6c-2.6,0-3.5,1.2-3.5,3.5l0,14.2c0,2.3-1,3.5-3.6,3.5h-65.7c-2.2,0-3.5-0.8-3.5-3.5l0-14.2
			c0-2.6-1.2-3.5-3.5-3.5H45.5c-1.9,0-3.2-1.2-3.2-2.8c0-0.5,0.1-0.9,0.3-1.3l12.6-24.7c0.5-0.9,1.3-1.4,3.2-1.4h63.8
			c2.2,0,3.6-0.9,3.6-3.6V95c0-2.5,1.1-3.5,3.5-3.5H195c2.4,0,3.5,1,3.5,3.6v14.2c0,2.4,1.1,3.5,3.5,3.5h75.5c2.4,0,3.2,1.5,3.2,2.8
			C280.8,116.1,280.7,116.5,280.5,116.9z"/>
	</g>
</g>
</svg>
