<?xml version="1.0" encoding="utf-8"?>
<!-- Generator: Adobe Illustrator 24.1.2, SVG Export Plug-In . SVG Version: 6.00 Build 0)  -->
<svg version="1.1" xmlns="http://www.w3.org/2000/svg" xmlns:xlink="http://www.w3.org/1999/xlink" x="0px" y="0px"
	 viewBox="0 0 323.1 255.8" style="enable-background:new 0 0 323.1 255.8;" xml:space="preserve" fill="#fff">
<style type="text/css">
	.st0{fill-rule:evenodd;clip-rule:evenodd;stroke:#fff;stroke-width:0.216;stroke-miterlimit:2.6131;}
</style>
<g id="Layer_2">
</g>
<g id="Layer_1">
	<g>
		<path d="M24.2,114.5c0,6.6,0,16.7,0,26.8c0,10.1,6,16.2,16.6,16.2h51.9c10.9,0,17.8-5.5,17.8-15.6v-21.2H68v13.2h27.9v5.4
			c0,3.5-1.9,4.5-4.5,4.5H43.8c-3.5,0-4.6-1.8-4.6-4.6v-23c0-3.1,1.7-4.1,3.6-4.1h67.7V98.2H40.7C29.9,98.2,24.2,104.8,24.2,114.5z"
			/>
		<polygon points="172.3,157.5 196.1,112.6 196.1,157.5 211.1,157.5 211.1,98.2 188.1,98.2 165.4,140.8 142.6,98.2 119.6,98.2
			119.6,157.5 134.6,157.5 134.6,112.6 158.4,157.5 		"/>
		<path d="M298.8,157.5v-14.9h-59.6c-3.5,0-4.6-1.8-4.6-4.6v-20.8c0-3,1.7-4.1,3.6-4.1h60.6V98.2h-62.7c-10.7,0-16.4,6.6-16.4,16.3
			c0,6.6,0,16.7,0,26.8c0,10.1,6,16.2,16.5,16.2H298.8z"/>
	</g>
</g>
</svg>
