<?xml version="1.0" encoding="utf-8"?>
<!-- Generator: Adobe Illustrator 24.1.2, SVG Export Plug-In . SVG Version: 6.00 Build 0)  -->
<svg version="1.1" xmlns="http://www.w3.org/2000/svg" xmlns:xlink="http://www.w3.org/1999/xlink" x="0px" y="0px"
	 viewBox="0 0 323.1 255.8" style="enable-background:new 0 0 323.1 255.8;" xml:space="preserve" fill="#fff">
<style type="text/css">
	.st0{fill-rule:evenodd;clip-rule:evenodd;stroke:#fff;stroke-width:0.216;stroke-miterlimit:2.6131;}
</style>
<g id="Layer_2">
</g>
<g id="Layer_1">
	<g id="layer1_2_" transform="translate(-39.48794,-563.5689)">
		<path id="path2998_2_" d="M129.1,678.8h-33v9.8h23.4c-1.2,13.7-12.6,19.6-23.4,19.6c-13.8,0-25.9-10.9-25.9-26.1
			c0-14.8,11.5-26.3,25.9-26.3c11.1,0,17.7,7.1,17.7,7.1l6.9-7.1c0,0-8.8-9.8-24.9-9.8c-20.5,0-36.3,17.3-36.3,35.9
			c0,18.3,14.9,36.1,36.8,36.1c19.3,0,33.4-13.2,33.4-32.7C129.7,681.2,129.1,678.8,129.1,678.8L129.1,678.8z"/>
		<path id="path3000_2_" d="M156.1,671.7c-13.6,0-23.3,10.6-23.3,23c0,12.5,9.4,23.3,23.4,23.3c12.7,0,23.1-9.7,23.1-23.1
			C179.4,679.6,167.3,671.7,156.1,671.7L156.1,671.7z M156.3,680.8c6.7,0,13,5.4,13,14.1c0,8.5-6.3,14-13,14
			c-7.4,0-13.2-5.9-13.2-14.1C143,686.8,148.8,680.8,156.3,680.8L156.3,680.8z"/>
		<path id="path3005_2_" d="M206.7,671.7c-13.6,0-23.3,10.6-23.3,23c0,12.5,9.4,23.3,23.4,23.3c12.7,0,23.1-9.7,23.1-23.1
			C230,679.6,217.9,671.7,206.7,671.7L206.7,671.7z M206.9,680.8c6.7,0,13,5.4,13,14.1c0,8.5-6.3,14-13,14
			c-7.4,0-13.2-5.9-13.2-14.1C193.6,686.8,199.4,680.8,206.9,680.8L206.9,680.8z"/>
		<path id="path3007_2_" d="M256.4,671.8c-12.4,0-22.2,10.9-22.2,23.1c0,13.9,11.3,23.2,22,23.2c6.6,0,10.1-2.6,12.7-5.6v4.6
			c0,8-4.8,12.8-12.2,12.8c-7.1,0-10.6-5.3-11.8-8.2l-8.9,3.7c3.2,6.7,9.5,13.6,20.8,13.6c12.4,0,21.8-7.8,21.8-24.1v-41.6h-9.7v3.9
			C265.9,673.8,261.8,671.8,256.4,671.8z M257.3,680.8c6.1,0,12.4,5.2,12.4,14.1c0,9-6.2,14-12.5,14c-6.6,0-12.8-5.4-12.8-13.9
			C244.3,686.1,250.7,680.8,257.3,680.8L257.3,680.8z"/>
		<path id="path3011_2_" d="M321.7,671.7c-11.7,0-21.6,9.3-21.6,23.1c0,14.6,11,23.2,22.7,23.2c9.8,0,15.8-5.4,19.4-10.2l-8-5.3
			c-2.1,3.2-5.5,6.4-11.3,6.4c-6.5,0-9.5-3.6-11.4-7l31-12.9l-1.6-3.8C338,677.9,331,671.7,321.7,671.7L321.7,671.7z M322.1,680.6
			c4.2,0,7.3,2.2,8.6,4.9l-20.7,8.7C309.1,687.5,315.4,680.6,322.1,680.6z"/>
		<path id="path3015_2_" d="M285.3,716.7h10.2v-68.2h-10.2V716.7z"/>
	</g>
</g>
</svg>
