<?xml version="1.0" encoding="utf-8"?>
<!-- Generator: Adobe Illustrator 24.1.2, SVG Export Plug-In . SVG Version: 6.00 Build 0)  -->
<svg version="1.1" xmlns="http://www.w3.org/2000/svg" xmlns:xlink="http://www.w3.org/1999/xlink" x="0px" y="0px"
	 viewBox="0 0 323.1 255.8" style="enable-background:new 0 0 323.1 255.8;" xml:space="preserve" fill="#fff">
<style type="text/css">
	.st0{fill-rule:evenodd;clip-rule:evenodd;stroke:#fff;stroke-width:0.216;stroke-miterlimit:2.6131;}
</style>
<g id="Layer_2">
</g>
<g id="Layer_1">
	<g>
		<polyline points="68.6,217.3 68.6,210.8 61.8,210.8 61.8,217.3 59.2,217.3 59.2,202.5 61.8,202.5 61.8,208.4 68.6,208.4
			68.6,202.5 71.3,202.5 71.3,217.3 		"/>
		<path d="M81.2,204.4c-2.8,0-4.5,2.3-4.5,5.4c0,3,1.7,5.4,4.5,5.4c2.8,0,4.4-2.4,4.4-5.4C85.7,206.8,83.9,204.4,81.2,204.4
			 M81.2,217.5c-3.9,0-7.1-2.9-7.1-7.7c0-4.8,3.3-7.7,7.1-7.7s7.1,2.9,7.1,7.7C88.3,214.6,85,217.5,81.2,217.5"/>
		<polyline points="96.8,204.8 96.8,217.3 94.2,217.3 94.2,204.8 89.5,204.8 89.5,202.5 101.4,202.5 101.7,204.8 		"/>
		<polyline points="104.6,217.3 104.6,202.5 113.8,202.5 113.8,204.8 107.2,204.8 107.2,208.4 112.5,208.4 112.9,210.7 107.2,210.7
			107.2,214.9 114,214.9 114,217.3 		"/>
		<polyline points="117.6,217.3 117.6,202.5 120.2,202.5 120.2,215 125.8,215 126.1,217.3 		"/>
		<path d="M133.1,217.4c-1.8,0-3.6-0.5-5.1-1.1l0.4-2.3c1.4,0.7,3.3,1.3,4.9,1.3c1.7,0,2.9-0.7,2.9-2s-0.8-1.7-2.9-2.4
			c-3.1-1.1-4.7-2.1-4.7-4.3c0-2.5,2.1-4.3,5-4.3c1.7,0,3.2,0.3,4.3,0.9l-0.4,2.5c-1.3-0.7-2.7-1.1-4-1.1c-1.5,0-2.5,0.8-2.5,1.7
			c0,1.1,0.8,1.5,3.1,2.3c3.1,1.1,4.5,2.1,4.5,4.5C138.5,215.7,136.3,217.4,133.1,217.4"/>
		<path d="M152.4,210.4c-1.3,0.7-2,1.6-2,2.8c0,1.4,1,2.3,2.6,2.3c1.1,0,2.2-0.5,3.1-1.4 M159.4,217.4l-2-1.9
			c-1.2,1.3-2.8,2.1-4.6,2.1c-3.2,0-4.9-1.5-4.9-4.1c0-2.1,1.3-3.5,3.3-4.5c-0.9-1.1-1.4-1.9-1.4-3.3c0-2,1.5-3.7,4.1-3.7
			c1.5,0,2.8,0.4,3.9,0.9l-0.4,2.3c-1.1-0.7-2.3-1.1-3.3-1.1c-1.2,0-1.7,0.7-1.7,1.6l1.3,2.3l3.8,3.9c0.5-1,0.7-2.1,0.9-3.5l2.1,0.5
			c-0.3,1.7-0.7,3.3-1.5,4.6l3.2,3.2L159.4,217.4z"/>
		<path d="M176.1,204.7h-1.9v4.8h1.9c1.9,0,3-0.9,3-2.5C179.1,205.5,178,204.7,176.1,204.7 M180,217.4l-4.3-5.9h-1.6v5.7h-2.7v-14.8
			h4.6c3.4,0,5.6,1.6,5.6,4.5c0,2.2-1.2,3.6-3.1,4.2l4.2,5.6L180,217.4z"/>
		<polyline points="185.8,217.3 185.8,202.5 195,202.5 195,204.8 188.4,204.8 188.4,208.4 193.7,208.4 194.1,210.7 188.4,210.7
			188.4,214.9 195.2,214.9 195.2,217.3 		"/>
		<path d="M203.2,217.4c-1.8,0-3.6-0.5-5.1-1.1l0.4-2.3c1.4,0.7,3.3,1.3,4.9,1.3c1.7,0,2.9-0.7,2.9-2s-0.8-1.7-2.9-2.4
			c-3.1-1.1-4.7-2.1-4.7-4.3c0-2.5,2.1-4.3,5-4.3c1.7,0,3.2,0.3,4.3,0.9l-0.4,2.5c-1.3-0.7-2.7-1.1-4-1.1c-1.5,0-2.5,0.8-2.5,1.7
			c0,1.1,0.8,1.5,3.1,2.3c3.1,1.1,4.5,2.1,4.5,4.5C208.6,215.7,206.4,217.4,203.2,217.4"/>
		<path d="M217.9,204.4c-2.8,0-4.5,2.3-4.5,5.4c0,3,1.7,5.4,4.5,5.4c2.8,0,4.4-2.4,4.4-5.4C222.4,206.8,220.7,204.4,217.9,204.4
			 M218.1,217.5c-3.8,0-7.1-2.9-7.1-7.7c0-4.8,3.3-7.7,7.1-7.7c3.9,0,7.1,2.9,7.1,7.7C225.2,214.6,221.9,217.5,218.1,217.5"/>
		<path d="M232.8,204.7h-1.9v4.8h1.9c1.9,0,3-0.9,3-2.5C235.8,205.5,234.7,204.7,232.8,204.7 M236.8,217.4l-4.3-5.9h-1.6v5.7h-2.6
			v-14.8h4.6c3.4,0,5.6,1.6,5.6,4.5c0,2.2-1.2,3.6-3.1,4.2l4.2,5.6L236.8,217.4z"/>
		<polyline points="248,204.8 248,217.3 245.3,217.3 245.3,204.8 240.7,204.8 240.7,202.5 252.5,202.5 252.8,204.8 		"/>
		<path d="M259.3,217.4c-1.8,0-3.5-0.5-5.1-1.1l0.4-2.3c1.4,0.7,3.3,1.3,4.9,1.3c1.7,0,2.9-0.7,2.9-2s-0.8-1.7-2.9-2.4
			c-3.1-1.1-4.7-2.1-4.7-4.3c0-2.5,2.1-4.3,5-4.3c1.7,0,3.2,0.3,4.3,0.9l-0.4,2.5c-1.3-0.7-2.7-1.1-4-1.1c-1.5,0-2.5,0.8-2.5,1.7
			c0,1.1,0.8,1.5,3.1,2.3c3.1,1.1,4.5,2.1,4.5,4.5C264.8,215.7,262.6,217.4,259.3,217.4"/>
		<path d="M158.7,38.2c-26.3,0-45.7,16.7-45.7,34.7c0,9.2,5.3,17.1,11.8,22.5l0.5-0.3c-5.2-4.3-9.9-11-9.9-20.3
			c1.4-19.6,25.6-30.6,46.9-30.6c15.2,0,42.5,3.5,42.5,28.9c0,13.3-14.2,30.5-43.9,30.5c-15.2,0-27-8.2-27-19.9
			c0-10.1,7.9-17.3,19.7-17.3c3.3,0,6.3,0.8,8.6,1.4c-4.9-0.9-12.5,0.4-16.5,3.5v17.1h14.5V68.8c2.7,0.5,4.9,1.5,6.4,2.5v17.1h3.8
			c-3,3.4-8.5,5.4-13.4,4.7v0.7c13.8,1.1,19.7-5.4,19.7-12.9c0-8.7-8.2-13.8-16.5-14.8v-13h-14.5v13c-9.4,1.9-18.7,7.5-18.7,16.7
			c0,14.3,19.9,23.1,37.2,23.1c26.4,0,46.7-12.8,46.7-30.6C211.2,53.7,181.8,38.2,158.7,38.2 M178.9,81.3c0-6.3-4.3-11.4-12.2-13.8
			V53.1h14.6v35.2h-4.6C178.3,86,178.9,83.5,178.9,81.3"/>
		<polyline points="95.4,127.1 95.4,177.7 99.3,178.2 99.3,181.2 79.8,181.2 79.8,178.2 84,177.7 84,154.7 59.2,154.7 59.2,177.7
			63,178.2 63,181.2 43.9,181.2 43.9,178.2 47.7,177.7 47.7,127.1 43.9,126.6 43.9,123.6 63,123.6 63,126.6 59.2,127.1 59.2,148.7
			84,148.7 84,127.1 79.8,126.6 79.8,123.6 99.3,123.6 99.3,126.6 		"/>
		<path d="M122.5,127.4c0,3.9-2.6,6.7-6.2,6.7c-3.7,0-6.2-2.6-6.2-6.4c0-3.7,2.5-6.5,6.2-6.5C119.9,121,122.5,123.9,122.5,127.4
			 M121.2,178l3.7,0.5v2.6h-17.9v-2.6l3.7-0.5v-34.6l-3.7-0.5v-2.6h14.2V178z"/>
		<polyline points="132.6,178.5 136.2,178 136.2,125.1 132.6,124.6 132.6,121.9 146.8,121.9 146.8,178 150.5,178.5 150.5,181.2
			132.6,181.2 		"/>
		<path d="M172.1,140.2h9.6v3.9h-9.6v24.3c0,6.3,1.3,8.3,7,8.3c2.1,0,3.9,0,5.6-0.4v2.8c-5.2,1.9-9.5,2.6-13.2,2.6
			c-8.2,0-10.1-3.7-10.1-10.9v-26.7H154v-3.9h7.8v-8.6l10.4-3.1"/>
		<path d="M217.9,160.9c0-13-3.9-18.6-10-18.6c-6,0-9.8,5.4-9.8,18.6c0,13,3.9,18.3,9.8,18.3C214.3,179.3,217.9,174.1,217.9,160.9
			 M229.6,161.1c0,12.8-8.6,21.3-22,21.3c-13,0-21.3-5.6-21.3-21.3c0-13.2,8.6-22,22-22C221.5,139.1,229.6,147,229.6,161.1"/>
		<path d="M279.1,178.5v2.6h-17.9v-2.6l3.6-0.5v-23.3c0-6.4-2.3-9.4-7.2-9.4c-2.3,0-5.8,1.6-8.4,3.4v29.2l3.7,0.5v2.6h-17.9v-2.6
			l3.7-0.5v-34.4l-3.7-0.5v-2.8h14.3v5.6c4.5-3.6,8.7-6.4,14.8-6.4c8,0,11.6,4.7,11.6,14v24.6"/>
		<path d="M207.9,100.3h-1.3v-0.5h3.2v0.5h-1.2v4.7h-0.7 M213.5,104.1L213.5,104.1l1.7-4.3h0.8v5.2h-0.6v-3.9l0,0l-1.5,3.9h-0.6
			l-1.6-3.9l0,0v3.9H211v-5.2h0.9L213.5,104.1z"/>
	</g>
</g>
</svg>
