<?xml version="1.0" encoding="utf-8"?>
<!-- Generator: Adobe Illustrator 24.1.2, SVG Export Plug-In . SVG Version: 6.00 Build 0)  -->
<svg version="1.1" xmlns="http://www.w3.org/2000/svg" xmlns:xlink="http://www.w3.org/1999/xlink" x="0px" y="0px"
	 viewBox="0 0 323.1 255.8" style="enable-background:new 0 0 323.1 255.8;" xml:space="preserve" fill="#fff">
<style type="text/css">
	.st0{fill-rule:evenodd;clip-rule:evenodd;stroke:#fff;stroke-width:0.216;stroke-miterlimit:2.6131;}
</style>
<g id="Layer_2">
</g>
<g id="Layer_1">
	<g>
		<g>
			<path d="M198.2,48.9c18.4,0,33.3,77.6,33.3,173.3h26.7c0-103.1-26.9-186.6-60-186.6c-18.8,0-35.7,25.1-46.7,64.4
				c-11-39.3-27.8-64.4-46.7-64.4c-33.1,0-60,83.5-60,186.6h26.7c0-95.7,14.9-173.3,33.3-173.3c18.4,0,33.3,71.6,33.3,160h26.6
				C164.9,120.5,179.8,48.9,198.2,48.9z"/>
		</g>
		<g>
			<g>
				<path d="M271.5,208.8c3.6,0,6.7,2.9,6.7,6.7c0,3.8-3,6.7-6.7,6.7c-3.7,0-6.7-2.9-6.7-6.7C264.8,211.7,267.8,208.8,271.5,208.8z
					 M271.5,221.2c3.1,0,5.5-2.5,5.5-5.8c0-3.2-2.4-5.7-5.5-5.7c-3.1,0-5.5,2.5-5.5,5.7C266,218.7,268.4,221.2,271.5,221.2z
					 M268.9,211.6h3c1.9,0,2.7,0.7,2.7,2.2c0,1.4-0.9,2-2.1,2.1l2.2,3.5h-1.3l-2.1-3.4h-1.3v3.4h-1.2L268.9,211.6L268.9,211.6z
					 M270.1,215.1h1.3c1.1,0,2-0.1,2-1.3c0-1.1-0.9-1.2-1.7-1.2h-1.6V215.1z"/>
			</g>
		</g>
	</g>
</g>
</svg>
