<?xml version="1.0" encoding="utf-8"?>
<!-- Generator: Adobe Illustrator 24.1.2, SVG Export Plug-In . SVG Version: 6.00 Build 0)  -->
<svg version="1.1" xmlns="http://www.w3.org/2000/svg" xmlns:xlink="http://www.w3.org/1999/xlink" x="0px" y="0px"
	 viewBox="0 0 323.1 255.8" style="enable-background:new 0 0 323.1 255.8;" xml:space="preserve" fill="#fff">
<style type="text/css">
	.st0{fill-rule:evenodd;clip-rule:evenodd;stroke:#fff;stroke-width:0.216;stroke-miterlimit:2.6131;}
</style>
<g id="Layer_2">
</g>
<g id="Layer_1">
	<g>
		<path d="M10.7,95.7h30.6c0,10.2,0,20.4,0,30.6c-10.2,0-20.4,0-30.6,0V95.7L10.7,95.7z"/>
		<path d="M44.5,95.7h30.6c0,10.2,0,20.4,0,30.6c-10.2,0-20.4,0-30.6,0C44.5,116.1,44.5,105.9,44.5,95.7L44.5,95.7z"/>
		<path d="M287,107.4c2.8-1.8,6.5-2,9.7-1.1c0,1.9,0,3.8,0,5.7c-1.5-0.7-3.3-1.1-4.9-0.4c-1.3,0.5-2,1.8-2.2,3.1
			c-0.2,1.6-0.1,3.3-0.1,5c3.2,0,6.5,0,9.7,0c0-2.1,0-4.2,0-6.3c2.2-0.6,4.4-1.3,6.6-2c0,2.8,0,5.5,0,8.3c2.2,0,4.4,0,6.6,0v5.4
			c-2.2-0.1-4.4,0-6.6,0c0,3.1,0,6.2,0,9.3c0,1.7-0.1,3.4,0.1,5.1c0.1,1,0.5,2.1,1.4,2.6c1.6,0.9,3.6,0.5,5-0.5v5.4
			c-1.9,0.8-4,1.1-6.1,0.9c-1.9-0.1-4-0.9-5.2-2.4c-1.5-1.7-1.8-4.1-1.9-6.3c0-4.7,0-9.5,0-14.2c-3.2,0-6.5,0-9.7,0
			c0,7.5,0,14.9,0,22.4c-2.2,0-4.4,0-6.6,0c0-7.4,0-14.9,0-22.3c-1.5,0-3.1,0-4.6,0c0-1.8,0-3.5,0-5.3c1.5,0,3.1,0,4.6,0
			c0.1-2.4-0.2-4.8,0.5-7.1C283.9,110.4,285.2,108.5,287,107.4L287,107.4z"/>
		<path d="M145.2,107.7c1.3-0.2,2.8,0.3,3.7,1.3c1,1.1,1.2,3,0.5,4.3c-0.9,1.5-2.8,2.2-4.4,1.8c-1.7-0.3-3.2-1.9-3.1-3.7
			C141.7,109.6,143.3,108,145.2,107.7L145.2,107.7z"/>
		<path d="M94.4,108.6c3.2,0,6.4,0,9.6,0c3,7.6,6,15.2,9,22.8c0.8,1.9,1.5,3.8,2.3,5.7c3.9-9.5,7.8-19,11.6-28.5c3.1,0,6.2,0,9.3,0
			c0,12.9,0,25.8,0,38.6c-2.2,0-4.5,0-6.7,0c0-9.5,0-19,0-28.5c0-0.4,0-0.9,0-1.3c-0.1,0.2-0.2,0.4-0.3,0.6
			c-3.8,9.7-7.7,19.4-11.5,29.2c-1.6,0.1-3.2,0-4.8,0c-4-9.7-7.9-19.5-11.8-29.2c-0.1-0.2-0.2-0.4-0.3-0.6c-0.1,4.2,0,8.3,0,12.5
			c0,5.8,0,11.5,0,17.3c-2.1,0-4.2,0-6.3,0C94.4,134.3,94.4,121.4,94.4,108.6L94.4,108.6z"/>
		<path d="M163.4,119.5c3.2-0.9,6.6-0.9,9.8,0c0.7,0.2,1.3,0.4,1.9,0.8c0,2.1,0,4.2,0,6.3c-2.1-1.6-4.8-2.7-7.6-2.3
			c-2.2,0.2-4.2,1.3-5.5,3.1c-1.7,2.2-2,5-1.8,7.7c0.2,2.1,1.1,4.1,2.7,5.5c1.7,1.5,4,2,6.2,1.8c2.2-0.2,4.2-1.2,5.9-2.4
			c0,2,0,4,0,6c-2.7,1.6-6,2-9.1,1.9c-3.2-0.2-6.3-1.4-8.6-3.6c-2.5-2.4-3.8-5.8-4-9.3c-0.2-3.6,0.6-7.3,2.6-10.3
			C157.8,122.1,160.5,120.3,163.4,119.5L163.4,119.5z"/>
		<path d="M235.8,119.1c3.1-0.5,6.3-0.1,9.2,1c0,2,0,4.1,0,6.1c-2-1.4-4.5-2.1-7-2.1c-1.2,0-2.6,0.6-3.2,1.7c-0.4,1.2-0.1,2.7,1,3.4
			c1.9,1.3,4.1,1.8,6.1,2.9c1.5,0.9,3,2,3.8,3.6c1.5,3,0.8,7.1-1.7,9.3c-2.4,2.3-6,2.9-9.2,2.8c-2.3-0.1-4.6-0.6-6.7-1.5
			c0-2.1,0-4.3,0-6.4c1.8,1.3,3.8,2.2,6,2.6c1.5,0.2,3.2,0.3,4.6-0.4c1.4-0.7,1.6-2.6,0.8-3.8c-0.8-0.9-1.9-1.4-2.9-1.9
			c-2-0.9-4-1.6-5.7-2.9c-1.2-0.9-2.1-2.3-2.5-3.8c-0.5-2.2-0.4-4.7,0.9-6.6C230.6,120.9,233.2,119.5,235.8,119.1L235.8,119.1z"/>
		<path d="M189.9,119.9c1.8-1.1,4.2-1.2,6.1-0.5c0,2.2,0,4.4,0,6.6c-1.3-0.8-2.9-1.2-4.5-1.1c-1.9,0.2-3.4,1.7-4.1,3.3
			c-0.8,1.8-1,3.7-0.9,5.7c0,4.4,0,8.8,0,13.2c-2.2,0-4.4,0-6.5,0c0-9.2,0-18.5,0-27.7c2.2,0,4.4,0,6.5,0c0,1.6,0,3.2,0,4.8
			C187.2,122.6,188.3,120.9,189.9,119.9L189.9,119.9z"/>
		<path d="M142.4,119.5c2.2,0,4.4,0,6.6,0c0,9.2,0,18.5,0,27.7c-2.2,0-4.4,0-6.6,0C142.4,138,142.4,128.8,142.4,119.5L142.4,119.5z"
			/>
		<path d="M223.6,126c-1.2-2.6-3.2-4.7-5.8-5.8c-3-1.3-6.3-1.5-9.5-1.1c-3.3,0.4-6.6,2-8.7,4.7c-1.9,2.4-2.9,5.4-3.1,8.5
			c-0.3,3.6,0.3,7.4,2.4,10.3c1.8,2.6,4.6,4.3,7.7,5c2.5,0.5,5.2,0.5,7.8,0c3-0.6,5.8-2.3,7.6-4.7c1.8-2.3,2.7-5.2,2.9-8.1
			C225.1,131.8,224.8,128.7,223.6,126z M217.2,138.7c-0.6,1.4-1.8,2.6-3.3,3.2c-1.7,0.7-3.6,0.7-5.4,0.2c-1.8-0.5-3.3-1.8-4.2-3.4
			c-1.1-2.1-1.2-4.6-1-6.9c0.2-2.1,0.9-4.3,2.6-5.8c1.2-1.1,2.8-1.6,4.4-1.7c2-0.1,4.1,0.4,5.5,1.9c1.5,1.5,2.1,3.7,2.3,5.8
			C218.2,134.2,218.1,136.6,217.2,138.7z"/>
		<path d="M276.6,126.8c-1-2.7-3.1-5.1-5.7-6.4c-3-1.5-6.5-1.7-9.8-1.3c-2.7,0.3-5.3,1.4-7.3,3.1c-2.5,2.1-3.9,5.3-4.4,8.5
			c-0.4,3.2-0.3,6.6,1,9.6c1.3,3,3.7,5.4,6.7,6.5c2.9,1.2,6.2,1.3,9.3,0.8c3.2-0.5,6.2-2.2,8.1-4.8c2.1-2.7,3-6.1,3-9.4
			C277.7,131.2,277.4,128.9,276.6,126.8z M270.7,136.2c-0.3,1.5-0.8,2.9-1.7,4.1c-1,1.2-2.4,1.9-3.9,2.1c-1.6,0.2-3.3,0.1-4.7-0.5
			c-1.6-0.7-2.8-2.1-3.5-3.7c-0.8-1.9-0.9-4-0.8-6c0.2-2,0.7-4,2-5.5c1.2-1.4,3-2.2,4.8-2.3c1.9-0.1,3.9,0.3,5.3,1.6
			c1.3,1.1,2.1,2.7,2.4,4.4C271,132.2,271,134.2,270.7,136.2z"/>
		<path d="M10.7,129.4c10.2,0,20.4,0,30.6,0c0,10.2,0,20.4,0,30.6H10.7V129.4L10.7,129.4z"/>
		<path d="M44.5,129.5c10.2,0,20.4,0,30.6,0c0,10.2,0,20.4,0,30.6H44.5C44.5,149.9,44.5,139.7,44.5,129.5L44.5,129.5z"/>
	</g>
</g>
</svg>
