<?xml version="1.0" encoding="utf-8"?>
<!-- Generator: Adobe Illustrator 24.1.2, SVG Export Plug-In . SVG Version: 6.00 Build 0)  -->
<svg version="1.1" xmlns="http://www.w3.org/2000/svg" xmlns:xlink="http://www.w3.org/1999/xlink" x="0px" y="0px"
	 viewBox="0 0 323.1 255.8" style="enable-background:new 0 0 323.1 255.8;" xml:space="preserve" fill="#fff">
<style type="text/css">
	.st0{fill-rule:evenodd;clip-rule:evenodd;stroke:#fff;stroke-width:0.216;stroke-miterlimit:2.6131;}
</style>
<g id="Layer_2">
</g>
<g id="Layer_1">
	<g>
		<path d="M66.2,159.9c-4,0.7-8,0.9-12.2,1.5l-12.7-37.2v38.8c-4,0.4-7.6,1-11.3,1.5V93.3h10.6L55,133.7V93.3h11.2L66.2,159.9
			L66.2,159.9z M88,119.4c4.3,0,10.9-0.2,14.9-0.2v11.1c-4.9,0-10.7,0-14.9,0.2V147c6.5-0.4,13.1-1,19.7-1.2v10.7L76.9,159V93.3
			h30.8v11.1H88C88,104.4,88,119.4,88,119.4z M149,104.4h-11.5v51.1c-3.7,0-7.5,0-11.1,0.1v-51.2h-11.5V93.3H149
			C149,93.3,149,104.4,149,104.4z M167.1,118.6h15.2v11.1h-15.2v25.2h-10.9V93.3h31v11.1h-20.1C167.1,104.4,167.1,118.6,167.1,118.6
			z M205.3,145.2c6.3,0.1,12.7,0.6,18.9,1v11c-9.9-0.6-19.9-1.2-30-1.5V93.3h11.1V145.2L205.3,145.2z M233.5,157.9
			c3.5,0.2,7.3,0.4,10.9,0.8V93.3h-10.9V157.9z M293.1,93.3L279,127.2l14.1,37.3c-4.2-0.6-8.3-1.3-12.5-2l-8-20.6l-8.1,18.9
			c-4-0.7-7.9-0.9-11.9-1.5l14.3-32.6l-12.9-33.4h11.9l7.3,18.7l7.8-18.7L293.1,93.3L293.1,93.3z"/>
	</g>
</g>
</svg>
