<?xml version="1.0" encoding="utf-8"?>
<!-- Generator: Adobe Illustrator 24.1.2, SVG Export Plug-In . SVG Version: 6.00 Build 0)  -->
<svg version="1.1" xmlns="http://www.w3.org/2000/svg" xmlns:xlink="http://www.w3.org/1999/xlink" x="0px" y="0px"
	 viewBox="0 0 323.1 255.8" style="enable-background:new 0 0 323.1 255.8;" xml:space="preserve" fill="#fff">
<style type="text/css">
	.st0{fill-rule:evenodd;clip-rule:evenodd;stroke:#fff;stroke-width:0.216;stroke-miterlimit:2.6131;}
</style>
<g id="Layer_2">
</g>
<g id="Layer_1">
	<g>
		<path id="surface1_1_" d="M161.5,12c-15.1,30.2-62,38.5-85.7,20.2v146.2c0,20.2,15.1,35.3,40.3,40.3s35.3,10.1,45.4,25.2
			c10.1-15.1,20.2-20.2,45.4-25.2s40.3-20.2,40.3-40.3V32.1C223.6,50.5,176.7,42.2,161.5,12z M178.7,43c1.1,0,2.1,0.1,2.7,0.1
			c-2.3,1.1-6.5,3.3-11.7,7.4l-3.8-1.9c-0.6,0.4-1.2,0.8-1.8,1.2l11.5,5.8c0.5-0.4,1.1-0.9,1.6-1.3l-4.6-2.3
			c3.3-2.8,6.8-5.5,10.3-8.1c1.5,3.5,8.2,20.8-2.4,36.8c-12.9,19.5-36.2,17.7-40.3,17.1c1.5-3.3,6.9-15.4,13.6-25.5l4.3,2.1
			c0.3-0.6,0.6-1.1,1-1.6l-11.3-5.7c-0.3,0.5-0.6,1.1-0.9,1.6l4.6,2.3c-6.5,10.4-10.9,21.8-12.3,25.6c-1.6-4.1-6.7-19.9,4.2-37
			C153.1,44.3,170.8,42.8,178.7,43L178.7,43z M93.6,52.1l2.9,8.1h9.1l-7.3,5.7l2.8,8.7l-7.5-5.6l-7.5,5.3l2.9-8.4l-7-5.6h8.7
			L93.6,52.1z M122.6,52.1l2.9,8.1h9.1l-7.3,5.7l2.8,8.7l-7.5-5.6l-7.5,5.3l2.9-8.4l-7-5.6h8.8L122.6,52.1z M200.1,52.1l2.9,8.1h9.1
			l-7.3,5.7l2.8,8.7l-7.5-5.6l-7.5,5.3l2.9-8.4l-7-5.6h8.7L200.1,52.1z M229.2,52.1l2.9,8h9.1l-7.2,5.7l2.8,8.7l-7.5-5.6l-7.5,5.3
			l2.9-8.4l-7-5.6h8.8L229.2,52.1z M160.5,52.6c-0.6,0.5-1.2,0.9-1.7,1.4l11.9,6c0.6-0.5,1.1-1,1.6-1.5L160.5,52.6z M155.5,57.2
			c-0.5,0.5-0.9,0.9-1.4,1.4l11.9,6c0.5-0.5,0.9-0.9,1.4-1.4L155.5,57.2z M151.4,61.9c-0.4,0.6-0.9,1.1-1.3,1.7l11.7,5.8
			c0.5-0.5,0.9-1.1,1.4-1.6L151.4,61.9z M93.8,78.4l2.9,8h9.1l-7.3,5.7l2.8,8.7l-7.5-5.6l-7.5,5.3l2.9-8.4l-7-5.6h8.8L93.8,78.4z
			 M122.6,78.4l2.9,8h9.1l-7.3,5.7l2.8,8.7l-7.5-5.6l-7.5,5.3l2.9-8.4l-7-5.6h8.8L122.6,78.4z M200.4,78.4l2.9,8h9.1l-7.3,5.7
			l2.8,8.7l-7.5-5.6l-7.5,5.3l2.9-8.4l-7-5.6h8.8L200.4,78.4z M229.2,78.4l2.9,8h9.1l-7.2,5.7l2.8,8.7l-7.5-5.6l-7.5,5.3l2.9-8.4
			l-7-5.6h8.8L229.2,78.4z M85.9,107.7h151.2v65.5c0,20.2-13.3,30.2-35.6,34.7c-22.2,4.5-31.1,7.4-40,20.7
			c-8.9-13.3-17.7-16.9-40-20.7c-25.5-4.5-35.6-14.5-35.6-34.7V107.7z M93,115.7v11.5h3.9v50.9c-3.2-0.2-5.9-0.2-5.9-0.2l1,11.7
			c0,0,6.6,0.3,11.3,1.4c3.8,1,13.4,5,13.4,5l-1-13c0,0-1.9-1.1-4.9-2.3v-24l14.9,41.9l13.3,4v-74.7h3.9v-11.6h-21.7v11.6h4v28.2
			l-14.4-40.4v0L93,115.7z M147.8,116.3v11.6h4.9v66.8c-1.9-0.2-3.8-0.4-5.6-0.5v10.5c0,0,6.6,0.7,11.2,2.1
			c3.7,1.1,12.9,5.3,12.9,5.3v-11.6c0,0-1.8-1.1-4.7-2.3v-37.4h7.2l1.7,4.7h7.8V144h-7.8l-1.9,5.1h-7.1v-21.3h9.1l3,6.8h9.4v-18.3
			H147.8z M192.4,116.3v9.8l4,1.8v60.7c-2.3,1.2-4.3,2.3-5.9,3.4v13.2c4.4-2.5,15.2-8.5,20.5-10.6c10.1-4,21-4.9,21-4.9v-25.5h-10.9
			v16.4c-3.7,0.8-7.3,1.7-10.9,2.6v-55.3l4-1.8v-9.8L192.4,116.3z"/>
	</g>
</g>
</svg>
