<?xml version="1.0" encoding="utf-8"?>
<!-- Generator: Adobe Illustrator 24.1.2, SVG Export Plug-In . SVG Version: 6.00 Build 0)  -->
<svg version="1.1" xmlns="http://www.w3.org/2000/svg" xmlns:xlink="http://www.w3.org/1999/xlink" x="0px" y="0px"
	 viewBox="0 0 323.1 255.8" style="enable-background:new 0 0 323.1 255.8;" xml:space="preserve" fill="#fff">
<style type="text/css">
	.st0{fill-rule:evenodd;clip-rule:evenodd;stroke:#fff;stroke-width:0.216;stroke-miterlimit:2.6131;}
</style>
<g id="Layer_2">
</g>
<g id="Layer_1">
	<g>
		<path class="st0" d="M56.7,122.3H44.6H26l0,0c-2.3,0-2.3,0-2.3,1.7l0,0v62l0,0c0,0,0,0-0.1,0l0,0v0l0,0c0,0.4,0.4,1.4,1.8,1.4
			c1.3,0,13.6,0,14.9,0c1.4,0,1.4,0,1.4-1.3l0,0v-12.5l0,0c0-1.7,0-2,1.7-2l0,0h1.3h12.1l0,0c7.1-0.3,8.9-2,8.9-10l0,0v-30.9l0,0
			C65.6,123.7,63.8,122.3,56.7,122.3L56.7,122.3L56.7,122.3L56.7,122.3z M47.6,160.7c-0.1,1.9-1.5,2.9-2.9,2.9c-1.5,0-2.9-1-2.9-3.1
			l0,0v-28.3l0,0c0-1.9,1.4-2.9,2.9-2.9c1.5,0,2.9,1,2.9,3.1l0,0V160.7L47.6,160.7L47.6,160.7z"/>
		<path class="st0" d="M114.1,123.7c0-1.5-0.3-1-1.7-1.5l0,0H97.7l0,0c-1.6,0-1.6,0-1.6,1.5l0,0l0,51.3l0,0c0,5-5.7,4.9-5.7,0l0,0
			v-51.3l0,0c0-1.5,0-1.5-1.5-1.5l0,0H73.5l0,0c-1.8,0-1.8,0-1.8,1.5l0,0V178l0,0c0,8,1.8,9.3,6.7,9.3l0,0h28.5l0,0
			c5.6,0,7.4-1.5,7.2-8.9l0,0V123.7L114.1,123.7L114.1,123.7z"/>
		<path class="st0" d="M178.2,122.3h-50.7l0,0c-6,0-7.8,1.5-7.8,7.4l0,0V186l0,0c0,1.3,0,1.3,1.8,1.3l0,0h14.2l0,0c2,0,2,0,2-1.3
			l0,0v-53.1l0,0c0-4.6,5.7-5.1,5.7,0l0,0V186l0,0c0,1.3,0,1.3,2.1,1.3l0,0h14.2l0,0c1.7,0,1.7,0,1.7-1.3l0,0v-53.1l0,0
			c0-4.4,5.7-4.6,5.7,0l0,0V186l0,0c0,1.3,0,1.3,1.8,1.3l0,0h14.6l0,0c1.6,0,1.6,0,1.6-1.3l0,0v-56.7l0,0
			C185.1,123.7,183.3,122.3,178.2,122.3L178.2,122.3L178.2,122.3L178.2,122.3z"/>
		<path class="st0" d="M227.5,122.3h-14.7h-14.1l0,0c-4.8,0-6.7,1.5-6.7,7.1l0,0V186l0,0c0,1.3,0,1.3,2,1.3l0,0h14.2l0,0
			c1.8,0,1.8,0,1.8-1.3l0,0v-12.7l0,0c0.2-2,1.5-3,2.8-3c1.4,0,2.9,1,2.9,3.2l0,0V186l0,0c0,1.3,0,1.3,1.8,1.3l0,0h14.8l0,0
			c1.4,0,1.4,0,1.4-1.3l0,0v-56.7l0,0C233.7,123.7,232.2,122.3,227.5,122.3L227.5,122.3L227.5,122.3L227.5,122.3z M215.7,160.7
			c0,1.8-1.4,2.6-2.9,2.6c-1.4,0-2.8-0.9-2.8-2.6l0,0v-27.8l0,0c0-1.9,1.4-2.8,2.8-2.8c1.4,0,2.9,1,2.9,2.8l0,0V160.7L215.7,160.7
			L215.7,160.7z"/>
		<path class="st0" d="M249.5,177.2c0,0-0.1,0-0.1,0c-4.2,0-7.8,3.5-7.8,7.8c0,4.2,3.5,7.8,7.8,7.8c0,0,0.1,0,0.1,0
			c4.3,0,7.7-3.5,7.7-7.8C257.2,180.7,253.8,177.3,249.5,177.2L249.5,177.2L249.5,177.2L249.5,177.2z M255.6,185.7
			c-0.5,3.3-3.1,5.5-6.1,5.5c-0.8,0-1.7-0.1-2.5-0.4c-2.6-1.3-4-3.5-3.8-6.4c0.5-3.5,3.3-5.7,6.3-5.7c1.7,0,3.4,0.7,4.7,2.3
			C255.3,182.5,255.7,183.8,255.6,185.7L255.6,185.7L255.6,185.7L255.6,185.7z"/>
		<path class="st0" d="M252,185.2c0.6-0.5,0.9-1.2,0.9-2.1c0-0.7-0.3-1.4-1.1-1.9c-0.6-0.5-1.4-0.8-2.3-0.8c-0.1,0-0.2,0-0.3,0l0,0
			h-3.1l0,9.3h1.5l0-3.6h1.2l0.7,1l2,2.6h1.5L250,186l0,0C250.7,186,251.4,185.6,252,185.2L252,185.2L252,185.2L252,185.2z
			 M249.2,184.9h-1.6l0-3.5h1.6l0,0c0.1,0,0.2,0,0.3,0c0.5,0,1,0.2,1.3,0.5c0.4,0.3,0.7,0.8,0.7,1.2c0,0.5-0.2,0.9-0.7,1.3
			c-0.4,0.3-0.8,0.5-1.3,0.5C249.4,184.9,249.3,184.9,249.2,184.9L249.2,184.9L249.2,184.9L249.2,184.9z"/>
		<path class="st0" d="M298.4,56c-1.4-2.2-4.3-1.5-7.8,0.2c-4.6,2-12.9,11.2-14.9,16.3c-1.8,7.4-6,14.2-12.8,21.5
			c-6.9,5.6-19.1,3.4-26.2-1.1c-0.4,0-29.4-22.6-29.4-22.6c-10.4-8.2-17.6-11.7-26.3-12.8c-0.4-0.3-0.8-0.7-1-1
			c-1.4-3-1.6-2.8-2.6-3.5c-1.1,0.9-2,1.4-3.1,1.7c-0.5,0-0.6,0-0.9-0.2c-0.7-0.3-1.4-0.9-2.2-1c-0.9,0.2-1.6,1.9-2.8,3.7
			c0,0-2,1.8-3.9,3.3c-0.7,0.6-0.8,1.6-1.3,2.1c-1,1.1-2.1,2.8-2.3,2.8c-0.4,1.2-0.6,2.3,0.2,2.9c0,1.4,0.7,1.7,1,2
			c0.2,0.4,0.3,0.6,0.6,0.9c0.5,0.2,1,0.3,1.5,0.4c2.8,2.6,3.9,2.5,7.2,2.1c5.6,0.4,5.1,2.3,5,5.1c-0.4,0.4-0.4,0.4-0.8,0.6
			c-2.5,0-5.1-0.6-7.6-0.6c-5.5,0.5-10.2,1.4-9.8,8.1c0.4,2.6,5,6.2,7.5,1.3c0.4-2.2,2.2-1.2,3.9-0.7c9.8,4.2,17.7,6.4,22.9,2
			c1.6-2,2.5-0.6,4.2,0.6c7.9,9.4,19.2,15.5,36.6,15.7c5.8,1.4,10.2,3.9,12.4,9.6c5.4,13.8,12.2,24.9,22.3,30.8
			c-0.8,8.7-0.5,15.9,8.3,17.8c2.3-1.9-0.9-4.7,1.8-11.1c-0.2-2.8-2.7-5.2-3.5-10.6c-10.3-8.4-5.9-11.9-7.4-17.5
			c-0.1-8.2-1.9-14.5-5.4-20.7c-0.4-1,0.3-1.8,1.2-2.3c5.8-4.3,8.9-8.6,10.3-12.7c2.1-7.3,5.8-13.1,11-17.2
			c4.4-3.5,8.5-4.6,13.3-7.7C300.2,59.5,299.8,58.2,298.4,56L298.4,56L298.4,56L298.4,56z"/>
	</g>
</g>
</svg>
